<mxfile host="Electron" agent="Mozilla/5.0 (Windows NT 10.0; Win64; x64) AppleWebKit/537.36 (KHTML, like Gecko) draw.io/27.0.9 Chrome/134.0.6998.205 Electron/35.4.0 Safari/537.36" version="27.0.9">
  <diagram id="architecture-platform" name="AI-Powered Architecture Enablement Platform">
    <mxGraphModel dx="1413" dy="837" grid="1" gridSize="10" guides="1" tooltips="1" connect="1" arrows="1" fold="1" page="1" pageScale="1" pageWidth="1169" pageHeight="827" math="0" shadow="0">
      <root>
        <mxCell id="0" />
        <mxCell id="1" parent="0" />
        <mxCell id="title" value="AI-Powered Architecture Enablement Platform" style="text;html=1;strokeColor=none;fillColor=none;align=center;verticalAlign=middle;whiteSpace=wrap;rounded=0;fontSize=20;fontStyle=1;" parent="1" vertex="1">
          <mxGeometry x="210" y="170" width="480" height="30" as="geometry" />
        </mxCell>
        <mxCell id="platform" value="Platform Architecture" style="rounded=1;whiteSpace=wrap;html=1;fillColor=#ffffff;strokeColor=#e5e7eb;align=center;verticalAlign=top;spacingTop=20;fontSize=16;fontStyle=1;" parent="1" vertex="1">
          <mxGeometry x="250" y="250" width="400" height="300" as="geometry" />
        </mxCell>
        <mxCell id="frontend" value="Frontend Layer&lt;br&gt;&lt;br&gt;React + Material UI + ReactFlow + ELK.js" style="rounded=1;whiteSpace=wrap;html=1;fillColor=#dbeafe;strokeColor=#3b82f6;align=left;verticalAlign=top;spacingLeft=10;spacingTop=10;fontSize=12;" parent="1" vertex="1">
          <mxGeometry x="270" y="300" width="360" height="60" as="geometry" />
        </mxCell>
        <mxCell id="ai-layer" value="AI Layer&lt;br&gt;&lt;br&gt;LangChain + OpenAI (Natural Language Processing)" style="rounded=1;whiteSpace=wrap;html=1;fillColor=#f3e8ff;strokeColor=#8b5cf6;align=left;verticalAlign=top;spacingLeft=10;spacingTop=10;fontSize=12;" parent="1" vertex="1">
          <mxGeometry x="270" y="370" width="360" height="60" as="geometry" />
        </mxCell>
        <mxCell id="data-layer" value="Data Layer&lt;br&gt;&lt;br&gt;BIAN Service Domains + Systems + Teams + Relationships" style="rounded=1;whiteSpace=wrap;html=1;fillColor=#fef3c7;strokeColor=#f59e0b;align=left;verticalAlign=top;spacingLeft=10;spacingTop=10;fontSize=12;" parent="1" vertex="1">
          <mxGeometry x="270" y="450" width="360" height="60" as="geometry" />
        </mxCell>
        <mxCell id="visual-explorer" value="Visual&lt;br&gt;Explorer" style="ellipse;whiteSpace=wrap;html=1;fillColor=#e0f2fe;strokeColor=#0284c7;fontSize=12;fontStyle=1;" parent="1" vertex="1">
          <mxGeometry x="120" y="360" width="80" height="80" as="geometry" />
        </mxCell>
        <mxCell id="chat-interface" value="AI Chat&lt;br&gt;Interface" style="ellipse;whiteSpace=wrap;html=1;fillColor=#f0fdf4;strokeColor=#22c55e;fontSize=12;fontStyle=1;" parent="1" vertex="1">
          <mxGeometry x="720" y="360" width="80" height="80" as="geometry" />
        </mxCell>
        <mxCell id="arrow2" value="" style="edgeStyle=orthogonalEdgeStyle;rounded=0;orthogonalLoop=1;jettySize=auto;html=1;strokeWidth=2;strokeColor=#6b7280;" parent="1" source="visual-explorer" target="platform" edge="1">
          <mxGeometry relative="1" as="geometry" />
        </mxCell>
        <mxCell id="arrow3" value="" style="edgeStyle=orthogonalEdgeStyle;rounded=0;orthogonalLoop=1;jettySize=auto;html=1;strokeWidth=2;strokeColor=#6b7280;" parent="1" source="chat-interface" target="platform" edge="1">
          <mxGeometry relative="1" as="geometry" />
        </mxCell>
        <mxCell id="features" value="Key Features:&lt;br&gt;&lt;br&gt;• Client-side BYOK (privacy) • Interactive architecture visualization • Natural language queries • Collaborative change proposals" style="rounded=1;whiteSpace=wrap;html=1;fillColor=#f1f5f9;strokeColor=#64748b;align=left;verticalAlign=top;spacingLeft=10;spacingTop=10;fontSize=12;" parent="1" vertex="1">
          <mxGeometry x="120" y="600" width="680" height="80" as="geometry" />
        </mxCell>
      </root>
    </mxGraphModel>
  </diagram>
</mxfile>
